<?xml version="1.0" standalone="no"?>
<!DOCTYPE svg PUBLIC "-//W3C//DTD SVG 20010904//EN"
 "http://www.w3.org/TR/2001/REC-SVG-20010904/DTD/svg10.dtd">
<svg version="1.0" xmlns="http://www.w3.org/2000/svg"
 width="349.000000pt" height="349.000000pt" viewBox="0 0 349.000000 349.000000"
 preserveAspectRatio="xMidYMid meet">
<metadata>
Created by potrace 1.11, written by Peter Selinger 2001-2013
</metadata>
<g transform="translate(0.000000,349.000000) scale(0.100000,-0.100000)"
fill="#000000" stroke="none">
<path d="M1745 3463 c-340 -293 -489 -475 -593 -725 -164 -394 -110 -821 134
-1073 58 -60 117 -101 199 -140 132 -62 128 -60 106 -63 -31 -5 -138 25 -208
57 -209 98 -377 323 -438 586 -50 215 -37 480 34 685 55 158 187 403 302 563
31 42 44 67 35 67 -50 0 -361 -132 -376 -160 -26 -49 -117 -341 -136 -435 -2
-11 -8 -42 -14 -70 -16 -76 -17 -85 -25 -155 -9 -75 -9 -179 0 -254 27 -228
81 -384 190 -551 120 -182 286 -306 479 -356 56 -15 97 -18 198 -15 70 2 131
7 137 11 6 3 11 2 11 -4 0 -6 -33 -20 -72 -32 -101 -31 -264 -34 -368 -8 -399
102 -718 520 -768 1004 -15 147 -5 576 14 607 3 4 -1 5 -8 2 -32 -14 -209
-235 -263 -328 -28 -48 -28 -51 -17 -120 46 -297 145 -587 260 -766 160 -248
429 -447 672 -497 113 -23 253 -24 342 -4 102 24 235 89 288 143 9 8 32 23 50
33 l35 18 -19 -24 c-11 -13 -51 -55 -90 -92 -124 -121 -299 -188 -491 -191
-227 -2 -404 53 -614 192 -70 46 -249 211 -286 262 -90 126 -254 429 -306 568
-22 58 -38 78 -40 50 -1 -19 -4 -36 -45 -218 -54 -245 -56 -215 23 -301 210
-228 423 -418 548 -489 291 -166 598 -213 875 -133 90 26 216 87 265 128 72
61 145 138 145 154 0 4 9 16 20 26 11 10 17 21 15 25 -2 4 4 15 14 24 11 10
22 29 26 44 3 14 18 39 32 56 25 30 26 30 19 6 -4 -14 -12 -43 -17 -65 -41
-151 -159 -314 -298 -410 -83 -57 -205 -111 -316 -141 -80 -21 -128 -27 -240
-29 -77 -2 -160 0 -185 5 -25 5 -63 11 -86 14 -180 27 -454 158 -711 339 l-91
65 18 -67 c28 -98 68 -205 111 -298 39 -81 40 -82 97 -103 342 -129 657 -183
877 -149 33 5 71 11 85 13 92 13 271 81 366 138 164 98 300 243 368 392 34 75
64 197 62 259 -1 26 3 47 7 47 5 0 5 5 1 11 -10 16 -15 160 -5 155 5 -3 14
-27 21 -53 13 -50 14 -55 24 -113 8 -44 8 -156 1 -195 -14 -75 -18 -93 -31
-134 -34 -103 -102 -225 -158 -284 -15 -15 -25 -27 -22 -27 9 0 -82 -88 -137
-133 -176 -143 -382 -231 -622 -266 -124 -18 -437 -21 -540 -6 -104 15 -100
17 -68 -18 15 -17 41 -42 57 -56 17 -14 37 -33 45 -42 9 -9 53 -43 98 -77 95
-69 80 -68 288 -26 172 35 242 55 389 111 154 58 213 90 336 184 78 59 213
193 246 244 10 17 21 32 25 35 27 21 128 244 145 317 42 192 35 341 -24 493
-14 36 -34 75 -45 88 -11 12 -17 22 -12 22 5 0 -1 10 -12 23 -27 30 -66 97
-57 97 22 0 144 -145 181 -215 65 -124 86 -215 86 -370 0 -71 -2 -143 -5 -160
-13 -79 -21 -111 -31 -122 -5 -7 -7 -13 -3 -13 3 0 0 -16 -8 -35 -9 -20 -16
-39 -17 -43 -1 -4 -5 -16 -7 -27 -8 -31 -91 -185 -126 -235 -150 -213 -355
-374 -694 -542 -106 -53 -159 -84 -150 -89 19 -11 172 -49 221 -55 23 -3 48
-7 56 -10 8 -2 48 -7 90 -10 l76 -6 50 38 c81 62 104 83 235 214 189 189 257
278 335 435 42 86 99 235 90 235 -3 0 0 12 6 28 32 83 47 354 25 457 -13 64
-29 121 -41 150 -6 17 -18 46 -26 65 -29 77 -87 159 -166 238 -46 45 -88 82
-94 82 -6 0 -23 9 -38 19 -15 11 -57 32 -94 46 -81 33 -93 45 -31 34 161 -30
281 -95 390 -211 133 -141 211 -314 249 -553 15 -97 7 -271 -20 -425 -13 -73
-68 -228 -110 -310 -7 -14 -25 -50 -41 -80 -53 -104 -155 -270 -166 -270 -6 0
-8 -3 -5 -6 4 -4 -16 -36 -44 -71 -28 -36 -48 -67 -45 -70 13 -14 224 54 358
115 59 27 68 35 87 78 52 118 133 413 157 573 3 20 7 47 10 61 6 30 5 245 0
280 -3 14 -7 47 -11 74 -3 27 -8 53 -10 57 -3 4 -7 24 -11 45 -3 22 -10 47
-15 57 -5 9 -8 17 -5 17 6 0 -40 113 -76 185 -142 280 -411 472 -668 476 -30
0 -86 0 -123 -1 -38 -1 -71 0 -73 3 -8 8 87 37 146 45 366 47 718 -174 917
-578 43 -89 90 -219 99 -280 3 -19 8 -38 10 -41 3 -6 7 -41 19 -194 5 -59 5
-332 1 -390 -2 -22 -7 -78 -11 -125 -3 -46 -9 -89 -12 -95 -4 -7 -2 -7 5 0 5
6 78 115 162 244 l152 235 -7 60 c-8 71 -7 65 -35 181 -22 92 -75 237 -114
309 -148 273 -209 362 -327 478 -195 190 -430 294 -669 296 -164 1 -274 -34
-418 -131 -40 -27 -75 -47 -79 -44 -8 8 93 107 147 144 99 67 170 95 304 117
369 63 803 -145 1053 -502 117 -167 217 -348 282 -509 7 -18 17 -31 21 -28 7
4 39 131 46 180 1 11 5 34 8 50 4 17 9 62 12 100 5 69 5 71 -32 120 -85 113
-237 274 -364 385 -140 123 -301 215 -469 269 -199 64 -433 70 -623 15 -66
-19 -208 -84 -208 -96 0 -4 -7 -8 -14 -8 -19 0 -182 -161 -191 -189 -3 -11
-10 -21 -14 -21 -4 0 -13 -16 -21 -35 -8 -19 -17 -35 -22 -35 -4 0 -7 -3 -6
-7 4 -10 -43 -85 -48 -80 -6 6 12 86 27 123 7 16 13 34 14 39 2 6 22 44 46 84
79 132 233 266 374 324 85 35 183 65 235 73 25 3 68 9 96 13 102 14 268 2 409
-31 191 -44 491 -201 718 -376 l59 -44 -6 33 c-14 88 -104 339 -144 404 -15
25 -39 38 -133 72 -412 151 -716 185 -1002 112 -358 -91 -619 -320 -715 -626
-10 -35 -15 -63 -9 -63 6 0 5 -5 -1 -13 -12 -14 -14 -210 -3 -241 5 -12 5 -30
2 -40 -5 -14 -14 3 -31 60 -33 110 -37 267 -8 379 11 44 23 82 27 85 3 3 7 12
9 20 6 30 77 165 98 185 5 5 22 26 36 45 84 114 231 231 383 308 77 38 236 96
293 107 15 3 38 7 52 10 134 28 556 27 700 -1 34 -7 32 -4 -52 76 -47 45 -126
112 -175 147 -84 61 -90 63 -133 58 -229 -28 -527 -114 -705 -202 -132 -66
-311 -212 -414 -337 -62 -77 -165 -266 -173 -321 -2 -11 -6 -24 -10 -30 -3 -5
-9 -23 -12 -40 -3 -16 -9 -41 -12 -55 -12 -51 -11 -255 1 -297 7 -24 11 -43 9
-43 -4 0 29 -88 54 -140 17 -37 39 -71 83 -130 41 -55 45 -64 22 -52 -28 15
-111 101 -143 147 -50 73 -106 203 -116 270 -2 11 -7 45 -12 75 -38 255 65
577 263 820 135 165 374 334 679 479 60 29 107 54 105 56 -5 4 -196 42 -254
50 -22 3 -83 7 -135 10 -91 4 -96 3 -125 -22z"/>
</g>
</svg>
