<svg xmlns="http://www.w3.org/2000/svg" height="39.077" width="40" viewBox="35.019 34.211 40 39.077"><path d="M55.94 34.212h2.699v3.635c4.548 0 9.097.009 13.645-.014.769.032 1.613-.023 2.281.437.469.672.413 1.526.444 2.299-.021 7.888-.013 15.771-.009 23.656-.022 1.322.123 2.672-.154 3.976-.181.944-1.317.968-2.076.999-4.708.014-9.42-.01-14.131 0v4.09h-2.822c-6.925-1.259-13.863-2.422-20.797-3.635V37.852c6.973-1.214 13.949-2.409 20.92-3.64z" fill="#207245"/><path d="M58.609 39.33H73.48v28.391H58.609v-2.704h3.604v-3.155h-3.604v-1.803h3.604v-3.154h-3.604v-1.803h3.604v-3.154h-3.604v-1.803h3.604v-3.154h-3.604v-1.803h3.604v-3.154h-3.604V39.33z" fill="#fff"/><path d="M64.017 42.034h6.308v3.154h-6.308v-3.154z" fill="#207245"/><path d="M48.531 46.256c1.019-.072 2.042-.135 3.064-.185a952.698 952.698 0 0 1-3.636 7.386c1.239 2.524 2.505 5.029 3.749 7.552a254.644 254.644 0 0 1-3.253-.207c-.766-1.879-1.699-3.695-2.249-5.66-.612 1.83-1.487 3.556-2.189 5.35-.987-.014-1.974-.055-2.961-.095 1.158-2.267 2.276-4.552 3.47-6.805-1.014-2.321-2.127-4.597-3.172-6.904a730.2 730.2 0 0 1 2.974-.172c.671 1.762 1.406 3.502 1.96 5.309.595-1.914 1.482-3.717 2.243-5.569z" fill="#fff"/><path d="M64.017 46.991h6.308v3.154h-6.308v-3.154zm0 4.957h6.308v3.154h-6.308v-3.154zm0 4.956h6.308v3.154h-6.308v-3.154zm0 4.957h6.308v3.155h-6.308v-3.155z" fill="#207245"/></svg>