<svg xmlns="http://www.w3.org/2000/svg" viewBox="0 0 620 83.8"><path fill="#fff" d="M507.6 56c-2 6.6-8.1 13-14.2 14.6-4.7.8-8.1.2-10.4-1.4-2.5-1.7-4-4.7-4.7-7.5-.2-1-.3-2-.3-2.9 0-6.1 3.2-12 9.1-16.4 3.4-2.4 8-3.3 12-2.4 2.3.5 5.4 1.9 7.4 5.5 1.1 1.9 1.6 4.4 1.6 6.8 0 1.2-.1 2.5-.5 3.7m-235.3 0c-1.9 6.7-7.6 12.9-13.7 14.4-4.5.9-8.6.4-10.9-1.2-2.5-1.7-3.9-4.6-4.7-7.5-.3-1.3-.3-2-.3-2.9 0-6.1 3.2-12 9.1-16.4 3.4-2.4 8-3.3 12-2.4 2.3.5 5.4 1.9 7.4 5.5 1.1 1.9 1.7 4.4 1.7 6.8-.1 1.2-.3 2.5-.6 3.7M523 29.1c0-.4-.1-.8-.4-1.1-.3-.4-.8-.5-1.2-.5H513c-.8 0-1.4.5-1.6 1.2l-.6 3.2c-1.9-1.7-3.7-2.8-6.4-3.8l-.8-.4-.3-.1c-9.1-2-18.2.8-25.7 7.8-3.7 3.5-6.5 7.5-8.4 11.9L477.4 2c.1-.4 0-.8-.2-1.1-.2-.3-.6-.5-1-.5H465c-.3 0-.7.2-.9.5 0 0-33.6 44.9-38.9 50.9 1.9-7.5 8.9-49.8 8.9-49.8v-.3c0-.3-.1-.7-.3-.9-.2-.3-.6-.5-.9-.5h-11.8c-.4 0-.7.2-.9.5L363.9 67c-.9-9.6-5.5-20.1-5.5-20.1-7.4-15.4-23.7-20.6-33.3-12.3-.5.2-1.1.4-1.5.7 7.3-10.2 24.1-9.4 35.1 3.4 0 0 5 6.1 8.6 15.2 1-3.2 1.5-6.5 1.7-9.9-5.9-8.1-12.5-12.8-12.5-12.8-13.8-9.4-30.1-5.9-34.7 5.7-.5.6-.9 1.2-1.2 1.9 1.3-12.6 16.3-20.4 32.1-14.9 0 0 7.7 2.9 15.4 9.2l-.3-1.5c-.8-3.3-2.1-6.5-3.6-9.5-9-4-17-4.7-17-4.7-17-1.2-29.7 10.8-27.1 23.6v.7c0 .4 0 .8.1 1.1-5.7-11.6 3.5-26.5 20.2-29.8 0 0 7.8-1.4 17.5.1-2.4-2.6-5.2-4.9-8.3-6.9-9.7 1.2-16.9 4.5-16.9 4.5-15.4 7.6-20.4 24.5-11.8 34.2.3.6.6 1.1 1 1.6-10.8-7.1-10.2-24.7 2.7-36.1 0 0 6.1-5.1 15.1-8.8C335.9.6 332 0 328.1 0c-7.5 5.8-11.9 12.2-11.9 12.2-9.6 14.5-5.6 31.8 6.9 35.7v.1l.2.1c.4.3.8.5 1.2.7-12.8-.7-20.9-16.3-15.4-32.7 0 0 2.6-7.1 8.3-14.6-3.2.9-6.3 2.1-9.2 3.7-3.7 8.9-4.4 16.6-4.4 16.6-1.2 17.2 10.5 30 22.9 27.5h.8c.4 0 .9 0 1.3-.1-11.4 5.7-26-3.6-29.3-20.5 0 0-1.3-7.7 0-17.2-2.7 2.6-5.1 5.7-7.1 9.1 1.2 9.4 4.4 16.3 4.4 16.3 7.5 15.7 24.3 20.8 33.9 11.8h.1l.2-.1c.4-.2.8-.5 1.2-.8-7 11-24.4 10.5-35.6-2.6 0 0-5.5-7.4-8.5-16-.1-.3-.3-.8-.6-1.1-.3-.3-.8-.5-1.3-.5h-8.4c-.8 0-1.4.4-1.8 1.3 0 0-.5 1-.7 3-1.9-1.7-4-2.7-6-3.5 0 0-1.1-.4-1.2-.4-9.1-2.2-18.3.7-25.8 7.8-4.4 4.1-7.5 9-9.3 14.4 0 0-.1.1-.2.3l3.8-20.8c.1-.5-.1-1-.4-1.3-.3-.4-.8-.6-1.2-.6h-9.3c-.8 0-1.5.6-1.6 1.4L214.7 80c-.1.5 0 1 .4 1.3.3.4.8.3 1.2.3h9.3c.8 0 1.5-.3 1.6-1.1l3.7-20.8c0 .1.2 4.4.6 6.5 1.4 7.8 8.2 15.1 15.6 16.6 6.4 1.2 13.3-.5 20.1-4.7-.1.7-.3 1.9-.3 1.9v.3c0 .4.1.6.3.9.3.4.8.5 1.3.5h8.3c.8 0 1.5-.3 1.6-1.1l7.3-40.3c5.5 6.6 12.7 12.3 12.7 12.3 13.8 9.5 30.3 5.9 34.8-5.9.4-.5.8-1.1 1.1-1.7-1.3 12.6-16.3 20.4-32.1 14.8 0 0-7-2.6-14.4-8.4.1.3.1.6.2.8.9 3.5 2.1 6.7 3.8 9.8 8.6 3.6 16 4.3 16 4.3 16.9 1.2 29.5-10.7 27.1-23.3.1-.4.1-.8.1-1.3v-.5c5.3 11.6-3.8 26.1-20.4 29.4 0 0-7.4 1.3-16.6 0 2.2 2.4 4.7 4.5 7.5 6.3 9.6-1.2 16.7-4.5 16.7-4.5 15-7.4 20.2-23.8 12.3-33.6-.3-.7-.7-1.4-1.1-1.9 10.3 7.3 9.6 24.6-3.1 35.8 0 0-6.2 5.2-15.3 8.9 3.6 1.2 7.3 2 11.1 2.1 7.9-6 12.6-12.7 12.6-12.7 9.6-14.5 5.6-31.7-6.8-35.7-.5-.3-1-.6-1.6-.8 12.9.7 21 16.2 15.5 32.7 0 0-2.8 7.7-9 15.6l1.5-.3c3.1-.8 6.1-2 8.9-3.4C351 70 351.7 62 351.7 62c1.2-16.9-10.1-29.6-22.4-27.6-.5-.1-1-.2-1.5-.2h-.3c11.3-5 25.4 4.3 28.6 20.9 0 0 1.9 7.9.5 17.2-.3 1.3-.8 3.3-1.9 5.4-.3.6-.7 1.3-1.2 2.1v.1c-.2.3-.2.8-.1 1.2.2.4.6.7 1.1.7h13.2c.4 0 .7-.2 1-.4 0 0 43.6-47.6 48.6-53.7-1.9 10.1-5.8 34.4-9.3 52.6v.3c0 .3.1.6.3.8.2.3.6.5 1 .5h10.4c.4 0 .7-.2.9-.4 0 0 35.1-47.5 40.3-53.7-2.2 10.1-5.8 34.6-9.4 52.6v.3c0 .3.1.5.3.8.2.3.6.5.9.5h10.2c.6 0 1-.4 1.2-1l3.8-22.1v1.4c0 2.1-.7 4.2-.4 6.3 1.4 7.8 8.2 15.1 15.6 16.6 6.4 1.2 13.3-.5 20.1-4.7-.1.7-.3 1.9-.3 1.9v.3c0 .4.1.7.4 1 .3.4.8.3 1.2.3h8.3c.8 0 1.5-.3 1.6-1.1l7.5-40.5 1.1-11.3zm59.1 48.1c-3.7-6.1-14.3-23.8-15.3-25.3 1.3-1.5 14.5-17.9 17.2-21.1l-1.2 6.3c-.1.5 0 1 .3 1.3.3.4.8.6 1.2.6h4.6c-.4 2.9-5.4 29.6-6.8 38.2m32.3-49.1c-.3-.4-.8-.6-1.2-.6h-9.4c.5-2.9 2.6-14.1 2.6-14.1v-.3c0-.4-.1-.8-.4-1.1-.3-.4-.8-.6-1.2-.6h-9.3c-.8 0-1.5.6-1.6 1.4 0 0-2.3 12.5-2.7 14.7H586c-.6 0-1.1.2-1.4.7-.3-.5-.8-.7-1.3-.7h-10.7c-.5 0-.9.2-1.2.5 0 0-7.6 9.7-12 14.6 1.3-7.7 5.3-29.2 5.3-29.2v-.3c0-.4-.1-.8-.4-1.1-.3-.4-.8-.6-1.2-.6h-9.2c-.8 0-1.5.6-1.6 1.4-.2 1.3-1.5 7.3-2.7 14.8v-.1c-.3-.4-.8-.7-1.3-.7-3.8.1-8.1 1.7-11.1 3.7l.2-1.2c.1-.5 0-1-.3-1.3-.3-.4-.8-.5-1.2-.5h-8.4c-.8 0-1.4.5-1.6 1.2l-.2 1.3-9 49.8c-.1.5.1.9.4 1.3.3.4.8.6 1.3.5h8c.8 0 1.4-.5 1.6-1.3l6.2-30.9c2-7.8 7.1-10.2 11.7-10.8.2 0 1.2 0 1.3-.1-3.1 18.7-6.8 40.9-6.8 41.3-.1.5.1.9.4 1.3.3.4.8.6 1.2.6h9c.7 0 1.3-.4 1.5-1.1.3-.9 2.6-13.6 3.9-21.3 3.3 5.2 13.1 21.7 13.1 21.7.3.5.8.7 1.3.7h10.1c.2 0 .4-.2.6-.3.2.1.5.3.7.3h10.5c.8 0 1.4-.6 1.6-1.3 0 0 7.1-38.8 7.5-41.3h10.1c.8 0 1.5-.6 1.6-1.4l1.4-8.3v-.3c-.2-.4-.3-.7-.5-1M206.3 52.3c0 1.6-.2 2.5-.5 3.7-1.7 6.8-7.8 13-13.9 14.5-4.7.9-8.3.3-10.7-1.2-2.5-1.8-4.1-4.6-4.7-7.5-.3-1.2-.3-2-.3-3 0-6.1 3.4-12 9.3-16.5 3.4-2.4 8-3.3 12-2.4 2.3.5 5.1 2.1 7.2 5.6 1.1 1.8 1.7 4.3 1.6 6.8m-77.7-4.1c2.5-4.9 7.8-7.8 12.4-8.5 5-.4 7.2.9 9.4 2.8 2 2 2.9 3.9 3.1 5.7-2.6.1-21.1 0-24.9 0m95.2-36.1c-.3-.4-.8-.6-1.2-.6h-8.4c-.8 0-1.4.6-1.6 1.3 0 0-2.9 14.2-3.9 18.9-1.9-1.7-4.1-2.7-6.1-3.6l-.8-.4-.3-.1c-9.1-2-18.3.8-25.7 7.8-4.4 4.1-7.6 9-9.4 14.4-.2-4.5-1.4-8.8-3-12 0 0 0-.1-.1-.1-4.4-7.4-11.7-11-21.2-10.5h-.1c-10.5 1.3-21 8.4-26.1 18.5-.1.2-.2.3-.2.5l8-44.2c.1-.4 0-.8-.2-1.1-.2-.3-.6-.5-1-.5h-10.9c-.3 0-.7.2-.9.4 0 0-33.9 44.8-39.2 50.8 1.6-7.6 8.8-49.8 8.8-49.8v-.3c0-.3-.1-.6-.3-.8-.2-.3-.6-.5-.9-.5H68.5c-.3 0-.7.2-.9.5L.3 79.5c-.3.4-.4.9-.2 1.3s.6.8 1.1.8h13.5c.4 0 .7-.2 1-.5 0 0 42.6-49.1 47.7-55.2C61.5 36 57.5 61.8 53.6 80v.3c0 .3.1.6.3.8.2.3.6.5 1 .5h10.4c.4 0 .7-.2.9-.5 0 0 35.4-49 40.6-55.2-2.2 10.1-5.5 36.2-9.8 54.2v.3c0 .3.1.5.3.8.2.3.6.5 1 .5h10c.6 0 1-.4 1.2-1l3.8-20.8c0 4.5.8 8.8 2.7 12.4 3.7 6.6 10.4 10.6 18.4 10.9 11.5 0 22.5-7 27.3-17.4.2-.5.2-1.1-.1-1.6-.3-.5-.8-.8-1.4-.8h-8.6c-.5 0-.9.2-1.2.6-4.1 4.6-8.7 7-13.6 7.2-5 .1-9.4-2.7-11.2-7.3-.1-.2-.2-.6-.2-.6-.3-.9-.5-1.7-.5-2.3 0-.2 0-.3.1-.5h38.6c.4 0 .8-.2 1.1-.4 0 2.1.1 4.2.5 6.3 1.4 7.8 8.2 15.1 15.6 16.6 6.4 1.2 13.3-.5 20.1-4.7-.1.7-.3 1.9-.3 1.9v.3c0 .4.1.7.4 1 .3.4.8.3 1.2.3h8.3c.8 0 1.5-.3 1.6-1.1l12.2-67.2c0-.6-.2-1.1-.5-1.4m2.7 13.9h9.3c.8 0 1.5-.8 1.6-1.6l2-11c.1-.5 0-1-.3-1.3-.3-.4-.8-.6-1.2-.6h-9.3c-.8 0-1.5.6-1.6 1.4l-1.9 10.9c-.1.5 0 1.2.3 1.6.1.3.6.6 1.1.6m386.7-9.5h1.4c.4 0 1.2-.1 1.2-.9 0-.4-.3-.8-1.1-.8h-1.5v1.7zm0 3.5h-1.3v-6.2h2.9c.4 0 2.3 0 2.3 1.9 0 1.2-.8 1.5-1.1 1.7l1.1 2.7h-1.4l-1-2.5h-1.5V20zm1.1 1.7c2.6 0 4.7-2.2 4.7-4.8 0-2.7-2.1-4.8-4.7-4.8s-4.7 2.1-4.7 4.8c0 2.6 2.1 4.8 4.7 4.8m0-10.6c3.1 0 5.7 2.5 5.7 5.8 0 3.2-2.5 5.8-5.7 5.8s-5.7-2.6-5.7-5.8c0-3.3 2.5-5.8 5.7-5.8"/></svg>